<?xml version="1.0" encoding="UTF-8" standalone="no"?>
<svg
   id="Layer_1"
   viewBox="0 0 5.1999999 7.8"
   width="43.341999"
   height="65"
   version="1.1"
   xmlns="http://www.w3.org/2000/svg"
   xmlns:svg="http://www.w3.org/2000/svg"
   xmlns:rdf="http://www.w3.org/1999/02/22-rdf-syntax-ns#"
   xmlns:cc="http://creativecommons.org/ns#"
   xmlns:dc="http://purl.org/dc/elements/1.1/">
  <defs
     id="defs16" />
  <style
     type="text/css"
     id="style2">.st0{fill:#0acf83}.st1{fill:#a259ff}.st2{fill:#f24e1e}.st3{fill:#ff7262}.st4{fill:#1abcfe}</style>
  <title
     id="title4">Figma.logo</title>
  <desc
     id="desc6">Created using Figma</desc>
  <path
     id="path0_fill"
     class="st0"
     d="m 1.29999,7.79994 c 0.7175945,0 1.29999,-0.5823955 1.29999,-1.2999901 V 5.19996 H 1.29999 C 0.58239551,5.19996 0,5.7823555 0,6.4999499 0,7.2175445 0.58239551,7.79994 1.29999,7.79994 Z"
     style="stroke-width:0.0259998" />
  <path
     id="path1_fill"
     class="st1"
     d="M 0,3.89997 C 0,3.1823754 0.58239551,2.59998 1.29999,2.59998 H 2.59998 V 5.19996 H 1.29999 C 0.58239551,5.19996 0,4.6175645 0,3.89997 Z"
     style="stroke-width:0.0259998" />
  <path
     id="path1_fill_1_"
     class="st2"
     d="M 0,1.29999 C 0,0.58239551 0.58239551,0 1.29999,0 H 2.59998 V 2.59998 H 1.29999 C 0.58239551,2.59998 0,2.0175845 0,1.29999 Z"
     style="stroke-width:0.0259998" />
  <path
     id="path2_fill"
     class="st3"
     d="m 2.59998,0 h 1.29999 c 0.7175945,0 1.29999,0.58239551 1.29999,1.29999 0,0.7175945 -0.5823955,1.29999 -1.29999,1.29999 H 2.59998 Z"
     style="stroke-width:0.0259998" />
  <path
     id="path3_fill"
     class="st4"
     d="m 5.19996,3.89997 c 0,0.7175945 -0.5823955,1.29999 -1.29999,1.29999 -0.7175946,0 -1.29999,-0.5823955 -1.29999,-1.29999 0,-0.7175946 0.5823954,-1.29999 1.29999,-1.29999 0.7175945,0 1.29999,0.5823954 1.29999,1.29999 z"
     style="stroke-width:0.0259998" />
  <metadata
     id="metadata124">
    <rdf:RDF>
      <cc:Work
         rdf:about="">
        <dc:title>Figma.logo</dc:title>
      </cc:Work>
    </rdf:RDF>
  </metadata>
</svg>
