<?xml version="1.0" encoding="UTF-8" standalone="no"?>
<!-- Generator: Adobe Illustrator 17.1.0, SVG Export Plug-In . SVG Version: 6.00 Build 0)  -->

<svg
   version="1.1"
   id="Layer_1"
   x="0px"
   y="0px"
   viewBox="0 0 86.719431 64.999999"
   enable-background="new 0 0 547.8 410.6"
   xml:space="preserve"
   width="86.719429"
   height="65"
   xmlns="http://www.w3.org/2000/svg"
   xmlns:svg="http://www.w3.org/2000/svg"><defs
   id="defs19" />
<path
   fill="#cd6799"
   d="m 74.606514,37.339584 c -3.023772,0.01583 -5.651762,0.74407 -7.852308,1.820596 -0.807394,-1.598958 -1.614789,-3.023772 -1.75727,-4.068635 -0.158313,-1.219008 -0.348288,-1.963077 -0.158313,-3.419553 0.189975,-1.456477 1.044864,-3.530372 1.029032,-3.688685 -0.01583,-0.158313 -0.189975,-0.902382 -1.931414,-0.918213 -1.741439,-0.01583 -3.245409,0.332456 -3.419553,0.791563 -0.174144,0.459106 -0.506601,1.50397 -0.728238,2.580496 -0.300794,1.583126 -3.482878,7.234888 -5.303474,10.195334 -0.585757,-1.155682 -1.092357,-2.168883 -1.203176,-2.976277 -0.158313,-1.219008 -0.348288,-1.963077 -0.158313,-3.419554 0.189976,-1.456476 1.044864,-3.530372 1.029033,-3.688684 -0.01583,-0.158313 -0.189976,-0.902382 -1.931415,-0.918214 -1.741439,-0.01583 -3.245409,0.332457 -3.419553,0.791564 -0.174144,0.459106 -0.364119,1.535632 -0.728238,2.580496 -0.364119,1.044863 -4.591067,10.480297 -5.699255,12.918312 -0.569926,1.25067 -1.060695,2.248039 -1.408983,2.928784 0,0 0,0 0,0 0,0 -0.01583,0.04749 -0.06333,0.12665 -0.300794,0.585757 -0.474938,0.902382 -0.474938,0.902382 0,0 0,0 0,0.01583 -0.237469,0.427444 -0.490769,0.823226 -0.617419,0.823226 -0.09499,0 -0.269132,-1.139851 0.03166,-2.691315 0.633251,-3.277072 2.137221,-8.374739 2.12139,-8.548883 0,-0.09499 0.284962,-0.981538 -0.981539,-1.440645 -1.234838,-0.459107 -1.678114,0.300794 -1.788933,0.300794 -0.110819,0 -0.189975,0.269132 -0.189975,0.269132 0,0 1.37732,-5.730918 -2.62799,-5.730918 -2.50134,0 -5.952555,2.738809 -7.662332,5.208486 -1.076526,0.585757 -3.372059,1.836427 -5.825905,3.182084 -0.934045,0.522432 -1.899752,1.044864 -2.802134,1.535633 -0.06332,-0.06333 -0.12665,-0.142482 -0.189975,-0.205807 C 15.049296,37.418741 6.0887998,33.761719 6.4687501,26.811793 6.6112315,24.278791 7.4819511,17.62966 23.677335,9.5557147 37.00726,2.9857399 47.614207,4.8063353 49.450634,8.8433078 52.078624,14.605888 43.76721,25.307823 29.99401,26.859287 c -5.25598,0.585757 -8.01062,-1.440645 -8.707196,-2.200546 -0.728238,-0.791563 -0.839057,-0.839057 -1.108189,-0.680744 -0.443275,0.237469 -0.158312,0.949876 0,1.361489 0.411613,1.076526 2.105559,2.976277 4.971018,3.910322 2.533002,0.823226 8.691364,1.282333 16.14789,-1.598958 C 49.640609,24.421272 56.16309,15.444945 54.247507,7.9250945 52.331924,0.29442487 39.666912,-2.2227462 27.682645,2.035864 20.558576,4.5688664 12.832919,8.5583451 7.2761446,13.751 0.67450721,19.925193 -0.37035626,25.291992 0.05708789,27.540032 1.5927206,35.518989 12.59545,40.711644 16.996541,44.558641 c -0.221638,0.12665 -0.427444,0.237469 -0.601588,0.332457 -2.200546,1.092357 -10.591116,5.477617 -12.680843,10.116178 -2.3746897,5.25598 0.3799504,9.023821 2.2005458,9.530421 5.6517612,1.567295 11.4618362,-1.25067 14.5805952,-5.905062 3.118759,-4.654391 2.738808,-10.701935 1.298163,-13.472406 -0.01583,-0.03166 -0.03166,-0.06332 -0.06332,-0.09499 0.569926,-0.332457 1.155683,-0.680745 1.725608,-1.013201 1.12402,-0.664913 2.232209,-1.282333 3.182084,-1.788933 -0.538263,1.472307 -0.934044,3.229578 -1.124019,5.76258 -0.237469,2.976278 0.981538,6.839106 2.580496,8.358908 0.712407,0.664913 1.551464,0.680744 2.089727,0.680744 1.868089,0 2.707146,-1.551464 3.641191,-3.38789 1.139851,-2.24804 2.168883,-4.860199 2.168883,-4.860199 0,0 -1.282333,7.060744 2.200546,7.060744 1.266501,0 2.548833,-1.646451 3.118759,-2.485508 0,0.01583 0,0.01583 0,0.01583 0,0 0.03166,-0.04749 0.09499,-0.158313 0.126651,-0.205806 0.205807,-0.332456 0.205807,-0.332456 0,0 0,-0.01583 0,-0.03166 0.5066,-0.88655 1.646451,-2.897121 3.340397,-6.237518 2.184714,-4.306104 4.290272,-9.688734 4.290272,-9.688734 0,0 0.189976,1.313995 0.839057,3.49871 0.379951,1.282332 1.171514,2.691315 1.804765,4.052803 -0.506601,0.712407 -0.823226,1.108189 -0.823226,1.108189 0,0 0,0 0.01583,0.01583 -0.411613,0.538263 -0.854888,1.12402 -1.345657,1.693945 -1.725608,2.058065 -3.783673,4.416923 -4.068635,5.097668 -0.332457,0.807394 -0.253301,1.393151 0.37995,1.868089 0.459107,0.348288 1.282332,0.395782 2.121389,0.348288 1.551464,-0.110819 2.643822,-0.490769 3.182085,-0.728238 0.839057,-0.300794 1.820595,-0.759901 2.738808,-1.440646 1.693946,-1.250669 2.722978,-3.039602 2.62799,-5.398461 -0.04749,-1.298164 -0.474938,-2.596327 -0.997369,-3.815335 0.158312,-0.221637 0.300794,-0.443275 0.459106,-0.664913 2.675484,-3.910322 4.74938,-8.200595 4.74938,-8.200595 0,0 0.189975,1.313995 0.839057,3.49871 0.316625,1.108188 0.965707,2.311364 1.535633,3.482878 -2.517172,2.042233 -4.068635,4.416923 -4.62273,5.968387 -0.997369,2.88129 -0.221637,4.179454 1.25067,4.480248 0.664913,0.142481 1.614789,-0.174144 2.311365,-0.474938 0.886551,-0.284963 1.931414,-0.775732 2.928784,-1.50397 1.693945,-1.25067 3.324565,-2.99211 3.229578,-5.350968 -0.04749,-1.076526 -0.332457,-2.137221 -0.728238,-3.166253 2.13722,-0.886551 4.89186,-1.37732 8.406401,-0.965707 7.535682,0.886551 9.023821,5.588436 8.738858,7.567344 -0.284962,1.978909 -1.868089,3.055435 -2.390521,3.387891 -0.522431,0.332457 -0.696575,0.443276 -0.649081,0.680745 0.06333,0.348287 0.316625,0.332456 0.7599,0.269131 0.61742,-0.110819 3.957816,-1.598958 4.100298,-5.240149 0.237469,-4.654391 -4.195285,-9.736227 -12.031761,-9.688734 z M 16.474109,56.93869 c -2.501339,2.722978 -5.984218,3.75201 -7.4881878,2.88129 -1.614789,-0.934044 -0.9815384,-4.955186 2.0897268,-7.836476 1.868089,-1.75727 4.274442,-3.38789 5.873399,-4.38526 0.364119,-0.221638 0.902382,-0.538263 1.551464,-0.934045 0.110819,-0.06333 0.174144,-0.09499 0.174144,-0.09499 v 0 c 0.12665,-0.07916 0.2533,-0.158313 0.379951,-0.237469 1.124019,4.116129 0.04749,7.741488 -2.580497,10.606947 z M 34.680064,44.558641 c -0.87072,2.12139 -2.691315,7.551513 -3.799504,7.250719 -0.949876,-0.2533 -1.535632,-4.369429 -0.189975,-8.438064 0.680745,-2.042233 2.12139,-4.480248 2.960447,-5.430124 1.361488,-1.519801 2.865459,-2.026401 3.229578,-1.408982 0.459106,0.807394 -1.662283,6.696625 -2.200546,8.026451 z m 15.02387,7.187394 c -0.364119,0.189975 -0.712407,0.316626 -0.870719,0.221638 -0.110819,-0.06332 0.158312,-0.316625 0.158312,-0.316625 0,0 1.883921,-2.026402 2.62799,-2.944616 0.427444,-0.538263 0.934045,-1.171513 1.472308,-1.88392 0,0.06332 0,0.142481 0,0.205806 0,2.422184 -2.343027,4.052804 -3.387891,4.717717 z M 61.29242,49.102214 c -0.269132,-0.189975 -0.221638,-0.823226 0.680744,-2.802134 0.348288,-0.775732 1.171514,-2.073895 2.580496,-3.324565 0.158313,0.5066 0.269132,0.997369 0.253301,1.456476 -0.01583,3.055434 -2.200546,4.195285 -3.514541,4.670223 z"
   id="path2"
   style="stroke-width:0.158313" />
<g
   id="g4">
</g>
<g
   id="g6">
</g>
<g
   id="g8">
</g>
<g
   id="g10">
</g>
<g
   id="g12">
</g>
<g
   id="g14">
</g>
</svg>
