<?xml version="1.0" encoding="UTF-8" standalone="no"?>
<svg
   width="81.25"
   viewBox="0 0 81.25 65"
   height="65"
   version="1.1"
   id="svg22"
   xmlns="http://www.w3.org/2000/svg"
   xmlns:svg="http://www.w3.org/2000/svg">
  <defs
     id="defs26" />
  <g
     fill-rule="evenodd"
     fill="none"
     id="g20"
     transform="matrix(1.3552678,0,0,1.3552678,0,-0.00568429)">
    <path
       fill="#fdbd39"
       d="M 9.248,33.084 6.109,34.231 5.941,43.568 16.806,39.6 C 13.079,38.348 10.358,36.146 9.248,33.085"
       id="path2" />
    <path
       fill="#f69833"
       d="M 10.89,23.208 0,27.186 6.11,34.231 9.248,33.084 C 8.141,30.032 8.824,26.583 10.891,23.208"
       id="path4" />
    <path
       fill="#fecf33"
       d="M 29.218,9.734 C 15.349,14.8 6.408,25.254 9.248,33.084 L 59.469,14.738 C 56.629,6.908 43.086,4.668 29.218,9.734"
       id="path6" />
    <path
       fill="#ee6723"
       d="M 39.5,38.088 C 53.368,33.021 62.325,22.614 59.47,14.738 L 9.247,33.084 c 2.856,7.876 16.383,10.07 30.252,5.004"
       id="path8" />
    <path
       fill="#f69833"
       d="M 59.47,14.738 9.247,33.084 c 0.983,2.712 4.734,4.048 9.995,4.048 5.13,0 11.697,-1.269 18.543,-3.77 C 51.653,28.296 61.41,20.093 59.468,14.738"
       id="path10" />
    <path
       fill="#fdbd39"
       d="m 49.474,10.69 c -5.13,0 -11.697,1.269 -18.543,3.77 C 17.063,19.526 7.306,27.728 9.248,33.084 L 59.469,14.738 C 58.486,12.026 54.736,10.69 49.474,10.69"
       id="path12" />
    <g
       fill="#ee6723"
       id="g18">
      <path
         d="m 46.7,44.063 c -1.478,0 -3.657,-1.335 -6.48,-3.967 C 36.883,36.982 33.059,32.421 29.453,27.252 25.848,22.085 22.885,16.918 21.111,12.704 19.179,8.112 18.903,5.289 20.292,4.312 20.597,4.098 20.964,3.99 21.384,3.99 c 1.13,0 3.332,0.841 7.403,4.85 l 0.09,0.087 -0.013,0.125 C 28.836,9.34 28.811,9.631 28.788,9.916 l -0.045,0.566 -0.4,-0.402 C 23.956,5.66 22.025,5.183 21.398,5.183 c -0.179,0 -0.321,0.036 -0.423,0.108 -0.603,0.423 -0.642,2.497 1.232,6.948 1.743,4.139 4.662,9.227 8.22,14.328 3.56,5.102 7.325,9.596 10.604,12.654 3.535,3.298 5.128,3.654 5.65,3.654 0.18,0 0.325,-0.038 0.434,-0.115 0.635,-0.446 0.636,-2.668 -1.454,-7.46 l -0.096,-0.219 0.21,-0.115 c 0.21,-0.115 0.414,-0.228 0.604,-0.336 l 0.252,-0.143 0.116,0.265 c 1.481,3.395 2.866,7.71 1.05,8.987 -0.306,0.215 -0.675,0.324 -1.097,0.324 z"
         id="path14" />
      <path
         d="m 39.836,37.945 -0.02,0.26 c -0.351,4.339 -1.275,9.554 -3.682,9.766 -0.048,0.004 -0.098,0.006 -0.148,0.006 -1.636,0 -3.183,-2.343 -4.598,-6.963 -1.34,-4.372 -2.38,-10.24 -2.927,-16.527 -0.548,-6.284 -0.54,-12.246 0.023,-16.785 0.613,-4.947 1.781,-7.53 3.471,-7.679 0.05,-0.004 0.102,-0.007 0.153,-0.007 1.186,0 2.974,1.344 4.804,7.6 l -1.195,0.23 C 35.106,5.756 34.44,4.056 33.779,2.886 33.167,1.806 32.573,1.211 32.105,1.211 c -0.016,0 -0.031,0 -0.047,0.002 -0.732,0.064 -1.799,1.841 -2.393,6.636 -0.553,4.458 -0.56,10.33 -0.02,16.534 0.542,6.205 1.564,11.987 2.88,16.28 0.589,1.922 1.235,3.507 1.869,4.582 0.584,0.992 1.149,1.538 1.591,1.538 0.015,0 0.03,0 0.046,-0.002 0.7,-0.061 2.021,-1.91 2.577,-8.415 z"
         id="path16" />
    </g>
  </g>
</svg>
